<svg version="1.1" id="Layer_1" xmlns="http://www.w3.org/2000/svg" xmlns:xlink="http://www.w3.org/1999/xlink" x="0px" y="0px"
	 width="100%" viewBox="0 0 560 560" enable-background="new 0 0 560 560" xml:space="preserve">
<path fill="#000000" opacity="1.000000" stroke="none" 
	d="
M561.000000,361.583313 
	C554.507141,361.804840 548.015259,361.557526 541.521057,361.433472 
	C537.384827,361.354401 533.347168,361.192902 529.517212,363.749969 
	C527.200134,365.296936 523.974060,364.256622 521.158020,364.300507 
	C514.498169,364.404266 507.433350,365.867340 501.261444,364.153961 
	C489.043182,360.762085 476.857971,363.346161 464.726624,362.311157 
	C463.588898,362.214111 462.435730,362.298248 460.324951,362.298248 
	C463.891876,363.745392 466.862946,362.073456 469.420471,363.572876 
	C469.454376,364.073120 469.488251,364.573395 469.522125,365.073639 
	C461.445160,365.073639 453.368195,365.073639 445.291229,365.073639 
	C445.265717,365.663818 445.240204,366.254028 445.214691,366.844208 
	C449.019073,370.074432 454.133209,370.833649 458.407440,373.489838 
	C453.293945,374.455658 448.361847,373.059784 443.389587,372.860748 
	C440.964996,366.481415 433.810120,368.629425 429.542053,365.158875 
	C423.761230,360.458282 416.761261,361.575623 410.119263,363.682495 
	C408.616730,364.159088 407.819977,364.082581 406.251770,363.472809 
	C401.708496,361.706085 396.751129,362.223145 391.923889,362.528717 
	C391.450928,362.558624 390.918976,362.760773 390.542908,363.050049 
	C385.610077,366.844879 391.102112,370.584564 390.769684,374.453186 
	C390.557220,376.925629 393.165771,377.390442 395.688934,377.045319 
	C398.934540,376.601288 401.784363,373.004486 405.027740,374.891754 
	C407.813385,376.512665 407.788727,380.416016 409.104767,383.254547 
	C411.497894,388.416046 412.034058,394.286621 414.921661,399.301270 
	C415.071075,399.560699 415.146912,400.076294 414.996613,400.263214 
	C411.329376,404.823242 411.134125,411.437012 403.995178,414.109009 
	C389.419189,419.564606 374.396484,422.806305 359.339203,426.377533 
	C338.174225,431.397339 316.846191,431.954498 295.380310,431.144653 
	C279.630981,430.550476 263.928558,429.098358 248.462357,425.780334 
	C242.255783,424.448761 241.470001,424.955811 239.398727,431.022705 
	C238.831512,432.684082 238.787842,434.741974 236.483597,435.192932 
	C234.514938,434.329132 235.093704,432.823547 235.383743,431.349945 
	C237.101868,422.620758 236.244553,421.110107 227.611099,420.457092 
	C224.677811,420.235199 222.194580,420.129852 220.136276,417.847351 
	C219.622055,417.277161 218.657288,416.777374 217.915375,416.798523 
	C205.786575,417.144379 197.956970,407.498871 187.580887,403.797363 
	C186.091141,403.265930 184.873520,401.719177 182.837433,402.854645 
	C182.675781,405.348328 184.861496,406.016022 186.357544,407.051910 
	C189.941193,409.533386 190.734406,412.273132 187.703873,415.751129 
	C186.503159,417.129120 185.442169,418.635193 184.383987,420.129974 
	C179.921295,426.433899 178.862656,426.728821 172.600418,421.819214 
	C168.468063,418.579407 164.898529,416.504639 160.985031,422.080139 
	C159.438812,424.282990 157.146835,423.485382 155.203842,422.104187 
	C151.130341,419.208435 146.940201,416.460510 143.019943,413.370239 
	C139.449173,410.555511 136.799515,411.269470 134.164734,414.612915 
	C130.453857,419.321899 126.587852,423.908997 122.768188,428.531677 
	C121.815170,429.685089 120.827431,430.816284 119.780365,431.883850 
	C118.535133,433.153473 116.942688,434.094940 115.354446,432.864990 
	C113.627762,431.527863 114.536072,429.767365 115.558273,428.423340 
	C119.590553,423.121796 123.692764,417.872803 127.814117,412.639832 
	C132.046707,407.265625 131.965164,405.844177 126.782425,401.574127 
	C123.312355,398.715149 119.754898,395.962372 116.245300,393.151184 
	C114.213058,391.523376 113.607765,389.434814 115.563766,387.592255 
	C119.101471,384.259583 118.806114,379.438202 121.408096,374.998627 
	C115.253601,373.981262 109.325226,376.167480 103.303116,373.328674 
	C107.578308,372.520569 111.284889,371.937958 115.027748,372.378113 
	C119.394997,372.891754 123.635330,373.370056 127.413948,370.306183 
	C129.219452,368.842194 130.873566,370.038971 132.407547,371.087799 
	C139.471863,375.917603 139.495850,375.914734 144.705292,368.890076 
	C145.487549,367.835236 146.478363,366.896545 146.534836,365.461517 
	C145.528534,363.591248 143.923691,363.678528 142.199203,363.861420 
	C124.131012,365.778107 106.036140,365.063507 87.930603,364.550293 
	C80.800171,364.348206 73.647873,365.047333 66.505486,365.048401 
	C64.638626,365.048676 61.777241,366.570923 61.079781,362.710083 
	C60.887836,361.647552 58.655682,362.260620 57.374027,362.257904 
	C45.042332,362.231628 32.710510,362.268219 20.378717,362.278290 
	C19.046251,362.279358 17.708881,362.287842 16.382498,362.182861 
	C14.789782,362.056763 13.234738,361.556763 13.374317,359.612518 
	C13.496292,357.913513 15.036118,357.740906 16.401962,357.697479 
	C21.561371,357.533417 26.721077,357.324402 31.882051,357.274353 
	C46.367466,357.133820 60.854877,356.918030 75.338669,357.047882 
	C80.196083,357.091461 81.997040,355.616394 82.091438,350.509644 
	C82.444115,331.429779 85.878326,312.774292 91.291710,294.511932 
	C92.650536,289.927856 92.603439,286.040863 90.399017,281.638977 
	C84.260437,269.381226 80.110306,256.342804 76.897369,243.041931 
	C75.891678,238.878571 73.825356,237.190842 69.613937,237.343002 
	C64.077957,237.543030 58.529282,237.392105 52.518593,237.392105 
	C53.337124,233.881165 55.011372,234.067490 56.657921,234.142288 
	C72.112129,234.844345 87.549995,236.298584 103.036461,235.613022 
	C107.478989,235.416382 109.937485,236.861816 110.719711,241.334381 
	C111.047119,243.206406 111.616577,245.226227 113.759552,246.435211 
	C116.955078,244.216812 118.191910,240.601395 120.204819,237.674240 
	C131.803375,220.807571 145.508789,205.877823 161.233093,192.841110 
	C164.766327,189.911789 164.732666,188.185349 161.538788,185.103195 
	C152.668106,176.542816 144.091888,167.677277 135.402435,158.929199 
	C134.164581,157.682999 132.533905,156.630508 132.959396,154.082382 
	C135.937408,154.128281 137.443787,156.169449 139.122421,157.872772 
	C147.543289,166.417557 156.016724,174.912079 164.329208,183.561218 
	C167.003555,186.343872 169.125778,186.565781 172.444489,184.285080 
	C204.031677,162.577515 238.509949,148.420807 277.068665,145.776657 
	C285.824554,145.176224 291.010498,143.187134 294.554932,133.595093 
	C303.592438,109.137405 331.356476,96.280762 356.942535,103.316772 
	C361.597260,104.596794 363.828674,103.413963 366.391846,99.897057 
	C371.586487,92.769630 377.231567,85.972038 382.610687,78.976753 
	C384.799072,76.130898 387.020172,75.275711 390.179047,77.650780 
	C404.422760,88.360168 403.320160,84.850616 394.005493,98.458946 
	C390.526611,103.541458 386.659851,108.358307 382.974854,113.299942 
	C381.321106,115.517586 381.075409,117.334091 383.029022,119.922127 
	C393.977631,134.426208 397.587250,150.367538 391.338226,167.894974 
	C390.269012,170.894028 390.773132,172.782516 393.677643,174.460083 
	C435.294250,198.496933 465.831696,232.249054 484.084167,276.993683 
	C493.633118,300.402191 498.684418,324.666595 499.985138,349.809814 
	C500.348206,356.827301 500.312469,356.881683 507.574158,356.896881 
	C525.071167,356.933533 542.568298,356.916107 560.532715,356.960266 
	C561.000000,358.388885 561.000000,359.777802 561.000000,361.583313 
M112.345535,355.573181 
	C113.552162,357.218750 115.168633,356.902344 116.699913,356.315460 
	C117.113541,356.156921 117.572807,355.196564 117.458992,354.742645 
	C116.974701,352.811096 115.197952,353.368927 114.076889,352.485931 
	C114.513405,351.401123 115.039680,350.287079 113.951523,349.291687 
	C112.760269,348.201965 111.852203,349.202332 110.875565,349.767517 
	C108.882263,350.920990 106.869881,352.041534 105.048714,352.498718 
	C106.054901,349.493713 109.831200,348.975952 111.428314,344.964325 
	C104.138420,344.137238 100.902283,351.382294 94.286583,352.637878 
	C97.936691,347.579010 103.678627,345.958405 106.659424,340.816620 
	C103.224854,340.878967 101.409470,342.638794 99.373070,344.002930 
	C97.381432,345.337097 95.652962,347.346100 92.068924,347.754852 
	C95.413628,342.775696 101.860023,342.798767 103.466469,337.563660 
	C101.596596,335.579163 100.126808,337.009338 98.760391,337.668365 
	C95.437767,339.270874 92.736282,341.775513 89.872131,344.054352 
	C86.486877,346.747833 87.067467,350.473358 87.846619,353.670868 
	C88.645042,356.947510 92.167709,356.624451 94.977470,356.923920 
	C97.659760,357.209839 99.695976,355.487122 102.392220,355.586517 
	C105.861847,358.912048 108.857643,355.207031 112.345535,355.573181 
M361.733490,297.519440 
	C359.423859,301.393707 354.969696,303.430939 353.023926,307.675171 
	C356.393402,305.582764 359.608368,303.334442 362.548218,300.770599 
	C363.792816,299.685181 366.247772,297.990265 362.853027,295.746765 
	C363.145569,294.545471 364.241547,293.322845 362.257629,291.761871 
	C357.972656,295.126892 353.028778,297.924072 349.760681,304.498291 
	C355.414032,302.578918 357.615051,297.887787 361.733490,297.519440 
M491.987000,338.991486 
	C491.987000,338.991486 491.819366,338.801849 492.245697,338.285736 
	C494.498108,333.655090 493.788330,333.488129 489.539459,331.650482 
	C482.593079,328.646149 475.952087,333.157379 469.120300,331.374634 
	C464.420563,330.148254 461.049896,333.720947 457.660370,336.340515 
	C455.872467,337.722260 455.352386,340.332458 456.422363,341.770020 
	C458.068329,343.981506 456.959229,345.408661 456.431458,347.362885 
	C454.863892,353.167206 458.444672,357.321564 464.287537,356.541351 
	C465.990448,356.313965 467.563965,356.457336 469.208282,356.675385 
	C473.784454,357.282227 478.051880,356.942871 481.881500,353.735443 
	C483.756470,352.165070 485.890717,350.414795 489.008514,350.245728 
	C487.840149,353.354218 484.382355,353.520721 483.218292,356.464752 
	C486.795929,356.952423 490.403687,357.850952 493.254822,355.545258 
	C495.903870,353.403046 494.805603,341.873932 491.987000,338.991486 
M361.565369,265.033234 
	C367.471008,287.559174 373.380188,310.084167 379.277893,332.612183 
	C380.048584,335.556000 380.924774,338.248474 384.127808,339.674713 
	C396.438110,345.156097 408.675354,350.801422 420.952728,356.357178 
	C422.459137,357.038910 423.996857,357.810303 425.735840,357.534821 
	C432.025635,356.538391 438.367310,357.050232 444.681030,356.948212 
	C449.166809,356.875732 450.813934,354.918701 450.906830,350.542877 
	C451.347290,329.798157 446.778137,310.026093 438.896332,291.053223 
	C431.870880,274.141785 421.448669,259.281067 408.817352,246.046173 
	C393.198151,229.680588 375.032745,217.024078 353.663086,209.259262 
	C347.977997,207.193527 346.849457,208.143097 348.324860,214.004822 
	C352.547760,230.782242 356.982727,247.506271 361.565369,265.033234 
M427.902313,209.452667 
	C429.955261,207.084000 428.388885,205.782532 426.634460,204.156754 
	C416.450806,194.719604 404.834930,187.299530 393.277954,179.733383 
	C389.201965,177.064926 386.775299,177.061142 383.815613,181.028961 
	C377.003479,190.161652 368.477081,197.111084 357.257660,200.255402 
	C355.987915,200.611267 354.628571,200.974762 354.582916,202.733475 
	C355.199219,204.552979 356.935272,205.114502 358.392426,205.695129 
	C373.641785,211.771835 387.352875,220.359482 399.843964,230.936340 
	C401.875275,232.656357 403.263947,232.114502 404.963928,230.500336 
	C407.580353,228.016052 409.898529,225.040466 414.279602,223.559937 
	C411.991791,227.346298 409.269745,229.582077 406.757233,231.964355 
	C404.483612,234.120193 404.664368,235.569473 407.071442,237.561569 
	C412.500916,242.055008 417.190399,247.341583 421.532227,252.857269 
	C431.774414,265.868683 440.815155,279.695770 446.268890,295.428650 
	C449.093323,303.576508 452.787140,311.516541 453.418518,320.389130 
	C453.944641,327.782593 458.969879,330.511810 466.117828,327.932434 
	C467.380554,327.476776 468.598480,325.710266 470.114380,327.222992 
	C472.254791,329.358856 474.774963,328.600250 477.067200,328.077301 
	C480.081696,327.389587 482.748230,326.784912 486.054962,327.677795 
	C491.018463,329.017944 492.591095,327.095367 491.541473,322.073517 
	C489.811981,313.799133 488.418793,305.406189 485.977844,297.337311 
	C476.390686,265.645599 460.329468,237.627991 437.314911,213.706055 
	C432.394745,208.591919 432.378021,208.613266 426.571991,212.666245 
	C426.464478,212.741318 426.101196,212.450012 425.650726,212.227753 
	C426.296570,211.426254 426.909271,210.665894 427.902313,209.452667 
M325.919220,182.678818 
	C309.294281,175.636124 298.356018,152.398865 313.753357,129.799072 
	C311.512024,129.573135 310.417816,132.603790 307.600372,131.691055 
	C309.618317,129.551193 311.620178,127.930634 314.372375,127.601997 
	C315.545959,127.461861 317.257019,127.641129 317.309143,126.362610 
	C317.514008,121.339333 321.141205,119.852158 324.875610,118.224586 
	C325.895111,117.780258 326.734802,116.762482 325.766510,114.669258 
	C323.234314,116.512291 321.748718,114.741409 320.773468,112.534256 
	C310.824707,117.432907 305.199493,123.653740 308.222015,126.982414 
	C298.469025,130.759476 297.388306,139.961365 296.877563,148.032043 
	C296.142456,159.647354 296.847321,171.622070 306.081238,180.818436 
	C308.509369,183.236694 307.866852,185.183273 305.833710,188.050400 
	C300.907501,194.997330 294.851410,200.917343 289.522858,207.476517 
	C285.249390,212.736923 281.302063,218.319077 276.587982,223.151688 
	C269.133972,230.793152 262.022156,238.729599 255.289124,246.974792 
	C246.142715,258.175354 246.372971,258.251404 258.906006,266.022003 
	C261.423157,267.582672 262.911926,267.472717 264.739166,265.153595 
	C268.230499,260.722412 271.731567,256.256592 275.650574,252.214218 
	C282.005951,245.658813 286.949005,237.935043 293.219025,231.365601 
	C297.677246,226.694458 301.342010,221.473450 305.385742,216.523392 
	C308.929535,212.185303 313.366852,208.562683 316.197784,203.583527 
	C316.967987,202.228851 317.969269,200.963379 319.695404,201.274368 
	C321.359436,201.574158 322.776031,202.403427 323.295837,204.285782 
	C327.636597,220.005188 331.820953,235.772079 336.496307,251.391785 
	C337.661804,255.285614 337.486145,259.808075 340.481323,263.579132 
	C344.145966,260.392944 347.412842,257.597015 350.624207,254.738739 
	C351.913757,253.591019 352.154663,252.337006 351.999481,250.384857 
	C351.237793,240.801193 346.132050,232.386520 345.188324,222.786819 
	C344.533203,216.122452 342.018921,209.640961 340.336517,203.077438 
	C339.520203,199.892731 340.613525,197.931412 343.933197,197.252106 
	C347.679596,196.485474 351.430420,195.716583 355.135498,194.776062 
	C366.842224,191.804398 375.558228,185.026001 381.878937,174.656204 
	C385.851135,168.139389 386.208130,161.048660 387.116394,153.218399 
	C382.729004,156.893600 377.972382,158.103241 376.212036,165.107529 
	C374.837341,170.577148 368.970520,176.055984 362.981689,179.456009 
	C360.539368,180.842590 358.546051,182.290833 359.718750,185.758484 
	C360.521362,188.131821 358.548645,190.068512 356.698517,190.096909 
	C353.203033,190.150604 349.002228,192.437943 346.339600,187.992432 
	C345.182343,186.060226 343.244781,186.442749 341.418518,186.404251 
	C336.253143,186.295395 331.096985,186.078781 325.919220,182.678818 
M301.625061,297.916565 
	C298.942719,296.234497 296.210663,294.625885 293.591095,292.851166 
	C290.548676,290.789978 288.739471,291.702545 287.584778,294.956909 
	C280.790131,314.107208 273.988373,333.255035 267.139587,352.386017 
	C265.929138,355.767181 267.116241,356.918945 270.519897,356.910797 
	C298.018219,356.844879 325.516724,356.830719 353.015106,356.855469 
	C357.118073,356.859161 358.390076,355.051697 357.338318,351.190033 
	C355.456451,344.280457 353.578308,337.367767 351.865814,330.415192 
	C351.128906,327.423401 349.494690,325.558929 346.778259,324.103088 
	C331.649811,315.995148 316.776031,307.436829 301.625061,297.916565 
M201.818390,356.868866 
	C220.116806,356.880524 238.415680,356.827240 256.713226,356.960327 
	C260.238647,356.985931 262.105865,355.795593 263.281036,352.374756 
	C270.142120,332.402649 277.116150,312.468018 284.264832,292.597321 
	C285.509094,289.138672 284.955444,287.037109 281.929047,285.092560 
	C276.894135,281.857422 271.954956,278.464935 267.085663,274.984589 
	C265.235535,273.662170 263.812317,273.651154 262.331726,275.332184 
	C261.122772,276.704834 259.868561,278.038055 258.673553,279.422546 
	C238.357666,302.960632 218.042709,326.499512 197.749420,350.057129 
	C196.503510,351.503448 194.220734,352.760468 195.170166,355.021393 
	C196.209045,357.495270 198.816650,356.770844 201.818390,356.868866 
M224.280624,276.792572 
	C228.951172,271.151703 233.641129,265.526672 238.275772,259.856476 
	C239.192688,258.734680 240.561493,257.707489 240.226776,255.999054 
	C239.472733,252.150436 231.051361,248.128006 227.415436,249.940918 
	C216.095459,255.585175 204.816925,261.312500 193.514191,266.991455 
	C178.642380,274.463593 163.721054,281.838654 148.903946,289.417542 
	C141.312241,293.300720 139.456924,301.014191 144.314545,307.553101 
	C150.977905,316.522797 158.311661,324.916351 166.295547,332.737213 
	C171.584427,337.918121 171.912674,337.897308 176.708099,332.301849 
	C192.411545,313.978577 208.117264,295.657227 224.280624,276.792572 
M297.818359,267.219421 
	C296.091370,271.903351 294.674133,276.733734 292.548309,281.229095 
	C290.510651,285.537933 291.897583,287.846863 295.578674,290.204681 
	C308.342102,298.380005 321.415070,306.026550 334.541779,313.588531 
	C337.426178,315.250153 340.351562,316.843323 343.292999,318.402069 
	C344.431000,319.005157 345.685608,319.962585 346.965851,318.858856 
	C348.126587,317.858154 347.772888,316.414001 347.582672,315.103729 
	C347.487732,314.449860 347.248871,313.817108 347.078613,313.173889 
	C338.604828,281.159485 330.137543,249.143326 321.637115,217.135971 
	C321.273010,215.764999 321.058350,214.114624 317.982880,213.717026 
	C311.404022,231.162888 304.743805,248.824432 297.818359,267.219421 
M314.498505,364.342285 
	C309.447937,364.446533 304.390808,365.703156 298.803955,364.530457 
	C307.653931,362.634705 316.120056,363.147675 324.506897,362.578979 
	C305.025177,362.295502 285.562500,362.288910 266.099854,362.327087 
	C265.508148,362.328247 264.909546,362.780579 264.332672,363.060730 
	C264.214935,363.117920 264.138580,363.341675 264.119720,363.497864 
	C264.101135,363.651947 264.179657,363.817749 264.282867,364.279419 
	C269.054779,366.183807 274.558350,362.089325 279.310303,365.564911 
	C275.689697,366.224701 272.057220,366.732025 268.475372,366.490112 
	C264.661865,366.232483 260.878113,366.118622 260.641052,370.886749 
	C260.449158,374.746368 256.932098,377.278442 257.443634,381.137482 
	C257.501373,381.572937 257.878601,382.220276 258.235504,382.322357 
	C261.775238,383.334869 264.198730,386.306244 267.916199,387.251129 
	C278.598724,389.966370 289.444611,391.407806 300.383881,392.224518 
	C320.901306,393.756226 341.251404,392.595490 361.316132,387.804077 
	C363.132996,387.370209 365.797577,387.260773 365.456573,384.468658 
	C365.106873,381.605194 362.325684,381.739410 360.304413,381.630524 
	C357.217773,381.464233 354.097809,382.644806 350.941589,381.585175 
	C351.418274,380.271454 352.584320,380.464355 353.479279,380.174377 
	C356.697144,379.131714 361.303680,381.974823 363.146393,378.345703 
	C364.765533,375.156891 362.013763,371.349487 361.483704,367.756317 
	C360.896820,363.777679 358.682373,362.165985 354.289154,362.029633 
	C341.216644,361.623901 328.407867,365.156433 314.498505,364.342285 
M247.629196,199.455612 
	C250.443619,198.173370 249.040176,196.240753 248.418320,194.414581 
	C247.892838,192.871475 246.780029,191.706573 246.301559,190.018250 
	C243.787338,181.146561 241.002686,172.348160 238.142700,163.579498 
	C237.012100,160.113129 234.788132,158.321838 230.886505,160.098343 
	C226.964310,161.884186 223.088745,163.929626 218.977585,165.115341 
	C203.303787,169.635925 190.569473,179.642654 176.698181,187.495422 
	C172.374878,189.942917 172.640335,191.630447 176.605850,195.068298 
	C179.325821,197.426331 182.317596,199.659912 184.654816,202.235580 
	C189.457291,207.528000 195.147415,211.759247 200.194595,216.718002 
	C202.230103,218.717850 203.818024,217.856339 206.277161,217.012680 
	C217.160187,213.279099 225.107468,203.304108 237.487717,202.716705 
	C240.682129,202.565155 243.797653,200.751099 247.629196,199.455612 
M371.322540,409.096161 
	C371.796722,405.158386 369.569397,401.781250 368.992798,398.023468 
	C368.184021,392.752350 366.134644,391.451050 360.926788,393.023163 
	C353.253937,395.339386 345.284058,395.954041 337.488251,396.882294 
	C324.380981,398.442993 311.104553,399.126251 297.868622,397.081482 
	C287.259369,395.442474 276.487183,394.860565 266.101532,391.820068 
	C254.329865,388.373810 251.427567,390.393738 249.681671,402.989410 
	C249.614029,403.477539 249.525055,403.980774 249.336533,404.431122 
	C248.269913,406.979248 249.513809,408.093475 251.824081,408.754791 
	C266.347626,412.912018 281.278351,414.986115 296.233429,416.285614 
	C301.158691,416.713593 307.363159,419.687408 310.973450,413.973877 
	C319.272675,422.265625 322.072235,411.429871 327.232025,409.538177 
	C327.482788,412.742065 323.436005,413.353516 324.220917,416.640350 
	C326.011444,416.640350 327.812836,416.642883 329.614258,416.639679 
	C331.646759,416.636047 332.845001,414.038483 335.106628,414.818390 
	C342.846924,417.487610 350.029938,413.230072 357.537903,412.761078 
	C361.875458,412.490082 366.800354,412.093781 371.322540,409.096161 
M149.176727,271.731110 
	C155.829773,263.261292 162.408829,254.737259 169.774933,246.848206 
	C171.985916,244.480270 174.689240,242.427979 175.597366,240.454086 
	C168.735626,233.118103 162.441147,226.170242 155.885513,219.478195 
	C152.908066,216.438782 149.490067,213.291672 145.300964,218.831070 
	C145.049667,216.140167 148.100510,215.754974 147.368713,213.227783 
	C139.003418,219.155365 135.963058,229.166336 128.843857,235.890320 
	C133.234299,234.668121 135.682724,230.662979 139.759735,229.049408 
	C137.900070,231.387665 135.705826,233.328064 133.562317,235.322968 
	C127.624947,240.848755 120.615868,245.354752 116.733688,252.844833 
	C115.461540,255.299240 114.366722,257.784363 119.321701,257.627167 
	C116.863380,260.863678 117.446671,263.483765 120.040771,265.757446 
	C120.708412,266.342590 121.084976,266.943634 121.143143,267.858948 
	C121.429703,272.369049 124.632103,275.504761 126.521255,279.269165 
	C127.996742,282.209290 129.859573,281.945740 132.209030,280.704376 
	C137.651627,277.828766 143.109467,274.982025 149.176727,271.731110 
M296.470215,190.991150 
	C297.953918,188.532104 302.293732,187.164062 299.850311,183.178421 
	C294.221252,173.996460 290.507843,164.224075 289.997650,153.368835 
	C289.906677,151.434082 289.145203,150.498627 286.926819,150.410019 
	C272.206085,149.821915 257.971466,152.482361 243.891083,156.424850 
	C240.264282,157.440338 239.698303,159.447281 240.880081,162.777069 
	C244.072845,171.773056 247.180359,180.802475 250.122040,189.883316 
	C252.267609,196.506592 254.222855,197.649567 261.242981,196.226212 
	C271.476746,194.151291 281.741852,192.182007 292.264740,192.521072 
	C293.662201,192.566101 294.908447,192.491623 296.470215,190.991150 
M203.492401,336.017059 
	C209.953888,328.218536 216.740585,320.703217 223.177643,312.873047 
	C232.949097,300.986847 243.394852,289.656158 253.494858,278.037933 
	C255.634720,275.576416 257.519257,272.892944 259.502716,270.335846 
	C256.428955,265.353271 250.700806,264.055908 247.194672,260.038788 
	C246.118622,258.805908 244.741745,259.948334 243.815689,261.009644 
	C241.845627,263.267426 239.725784,265.416351 237.952866,267.820435 
	C231.462921,276.620880 224.563049,285.236053 217.120422,293.075867 
	C204.419128,306.455017 193.697357,321.469849 180.923615,334.739288 
	C176.015411,339.837921 176.373535,341.085052 181.822571,345.856934 
	C183.051254,346.932861 184.493790,347.852142 185.451904,349.132385 
	C187.880417,352.377411 190.116776,351.696533 192.357498,349.078186 
	C195.922775,344.912048 199.435043,340.700531 203.492401,336.017059 
M118.421646,278.973846 
	C112.716408,282.792511 104.949776,282.085236 99.987373,287.029205 
	C99.693054,288.819885 101.614029,288.652710 101.674713,289.454498 
	C102.138313,295.579407 106.075523,300.036774 108.817116,305.098938 
	C111.122169,309.355042 114.225456,313.000977 116.878052,316.978455 
	C126.417397,331.282471 137.465652,344.209717 150.563461,355.394470 
	C153.126373,357.583038 154.786896,357.135712 156.762482,354.843811 
	C159.474365,351.697723 162.251251,348.594116 165.184601,345.656311 
	C167.985687,342.850983 167.997971,340.846680 164.896301,337.929016 
	C148.409912,322.420624 134.743469,304.608765 122.865120,285.380157 
	C121.579605,283.299164 121.428665,280.518005 118.421646,278.973846 
M239.076370,404.591064 
	C242.216599,403.463318 244.726013,401.090759 246.033783,398.431335 
	C251.068558,388.192657 250.852249,387.863678 241.343643,384.453644 
	C233.541962,381.655792 225.828857,378.498383 218.364090,374.903198 
	C209.825058,370.790619 201.588104,366.046936 193.257477,361.508514 
	C191.525345,360.564850 189.934158,359.767090 188.368530,361.606110 
	C185.348053,365.154053 182.289581,368.674072 179.395218,372.323364 
	C177.598129,374.589172 178.077209,376.657440 180.590042,378.172729 
	C183.861588,380.145508 187.158524,382.077179 190.407196,384.086853 
	C205.356308,393.334381 221.323410,400.196442 239.076370,404.591064 
M228.003937,232.426041 
	C246.175980,223.335464 264.349060,214.247009 282.519073,205.152374 
	C285.731842,203.544281 288.897491,201.875427 290.568268,197.272415 
	C260.095642,198.653976 232.654221,206.811600 207.178619,222.586273 
	C209.726395,226.884399 213.387253,228.312042 215.754028,231.054871 
	C219.197006,235.044907 222.911270,236.086060 228.003937,232.426041 
M336.281006,158.595322 
	C335.867462,153.377319 336.574463,148.096222 334.715607,142.958313 
	C333.202698,138.776581 332.102692,134.422211 331.131042,130.074783 
	C330.247406,126.121178 328.391693,125.594978 325.134827,127.585350 
	C318.126801,131.868164 314.270325,138.410477 312.892609,146.152695 
	C310.391296,160.208939 316.143463,174.805710 331.594208,179.786499 
	C335.380829,181.007172 339.976593,182.915543 344.443634,180.023544 
	C342.165680,172.642593 344.223572,163.929672 336.281006,158.595322 
M191.867126,214.631256 
	C190.197647,211.659149 186.830231,210.588318 184.677567,207.927582 
	C181.086609,203.489105 176.629929,199.711670 172.285873,195.946518 
	C171.027527,194.855820 169.442917,192.696899 167.105942,194.508850 
	C161.097275,199.167587 155.265930,204.008820 150.228958,210.156250 
	C155.869781,215.418381 161.112198,220.335205 166.385376,225.218811 
	C169.911224,228.484161 173.465988,231.718781 177.039551,234.931839 
	C178.148010,235.928452 179.305862,237.073563 180.942032,235.765884 
	C186.731796,231.138504 192.520981,226.510406 198.301376,221.889740 
	C196.510223,218.907196 194.542404,216.927994 191.867126,214.631256 
M369.351349,151.087646 
	C375.123993,147.699387 370.129700,143.823288 369.763733,140.212799 
	C369.169708,134.352585 364.583984,137.882629 361.762543,137.411499 
	C361.629944,134.601959 364.767181,135.202072 365.247467,133.358292 
	C362.662231,128.192551 351.968536,121.922234 346.476440,122.316574 
	C343.527435,122.528328 342.576874,124.276169 343.561401,126.750671 
	C346.021545,132.933868 347.520477,139.653961 348.895264,145.857147 
	C350.481445,153.013809 354.081482,159.719803 354.342468,167.266830 
	C354.443939,170.201340 355.231506,173.494675 357.261353,176.003189 
	C364.224976,174.037888 369.783752,167.249435 371.478241,158.773193 
	C372.018921,156.068573 372.517181,153.464157 368.441101,152.841675 
	C366.929199,152.610779 368.227905,151.762238 369.351349,151.087646 
M116.026939,274.640808 
	C116.866562,273.542023 116.558037,272.412994 116.008720,271.355927 
	C111.346504,262.384247 108.026657,252.927521 105.768059,243.088791 
	C105.253250,240.846207 103.730652,240.246506 101.687042,240.341339 
	C97.037933,240.557098 92.390465,240.859604 87.738823,240.953934 
	C83.525261,241.039383 82.592148,243.418564 83.418556,246.918121 
	C86.027382,257.965546 90.203148,268.474304 94.681023,278.866516 
	C95.746025,281.338165 97.674843,282.494904 100.334007,281.407959 
	C105.401917,279.336395 110.756073,277.953888 116.026939,274.640808 
M280.557678,254.036606 
	C276.835602,258.291840 273.141174,262.571747 269.381317,266.793335 
	C267.030396,269.433014 266.817444,271.486694 270.284088,273.497650 
	C274.161346,275.746796 277.800354,278.407562 281.535645,280.900330 
	C287.022888,284.562256 287.315979,284.440094 289.715271,278.183655 
	C296.561584,260.330963 303.458038,242.497482 310.281464,224.636078 
	C310.837158,223.181503 311.996887,221.736435 310.774353,219.217331 
	C300.690491,230.832275 290.853699,242.162674 280.557678,254.036606 
M184.546249,239.044006 
	C176.847519,246.992310 168.083344,254.033707 163.061050,264.579773 
	C180.961395,254.893646 199.896896,247.582520 218.131409,237.157684 
	C213.925186,233.532272 210.324570,230.644608 206.985733,227.480728 
	C204.451141,225.078934 202.227951,225.038971 199.570190,227.190292 
	C194.795593,231.055069 189.905731,234.777466 184.546249,239.044006 
M239.631897,378.839691 
	C241.850662,379.541260 244.053207,380.300171 246.291306,380.933441 
	C252.545090,382.702911 252.685883,382.168915 254.754044,375.907806 
	C256.162659,371.643402 256.574951,367.303436 257.536102,362.951233 
	C241.962204,362.951233 226.401505,362.951233 210.840805,362.951233 
	C210.689087,363.498749 210.537384,364.046234 210.385666,364.593750 
	C218.722977,371.453247 229.432571,373.856323 239.631897,378.839691 
M374.440460,399.954102 
	C376.992706,408.482574 378.451874,409.232452 386.875793,406.322571 
	C388.282928,405.836517 389.714111,405.396698 391.071838,404.794861 
	C399.230957,401.178101 400.222900,398.654327 396.913452,390.067535 
	C396.497101,388.987183 396.013641,387.932343 395.549744,386.870728 
	C394.585175,384.663239 393.096924,384.104950 390.740540,384.891663 
	C386.362152,386.353424 381.923889,387.657166 377.459930,388.834900 
	C373.629211,389.845520 372.205048,391.931305 373.607819,395.778351 
	C373.997650,396.847382 374.100159,398.021149 374.440460,399.954102 
M399.221863,350.351318 
	C395.301422,348.546509 391.395233,346.709686 387.453430,344.952789 
	C385.900085,344.260468 384.201813,343.602875 383.394958,345.973999 
	C382.520355,348.544159 385.335968,356.012878 387.801422,356.410248 
	C394.410614,357.475464 401.065704,357.099304 408.333252,356.530792 
	C405.892578,352.703400 402.483429,352.326019 399.221863,350.351318 
M125.142281,343.601471 
	C126.350998,340.860718 125.118027,337.417969 123.253563,337.176361 
	C118.854042,336.606262 114.084892,334.821106 109.068283,337.549927 
	C113.530533,342.855377 117.605255,347.700104 121.714584,352.585938 
	C125.752838,350.665009 125.196785,347.423096 125.142281,343.601471 
M249.885605,246.415588 
	C252.121964,242.932144 255.856827,240.482071 257.578735,235.504227 
	C249.288269,238.952301 241.740982,241.897781 234.499893,246.722809 
	C236.235748,248.050217 237.262756,248.849716 238.304382,249.629700 
	C243.790527,253.737778 243.825409,253.731400 248.151657,248.480637 
	C248.572647,247.969681 249.010406,247.472534 249.885605,246.415588 
M176.243027,348.365906 
	C174.688705,347.385712 173.355835,344.457581 171.396484,346.171570 
	C168.622360,348.598236 165.531219,351.117584 164.568527,355.004272 
	C164.295593,356.106171 165.417953,356.786621 166.479660,356.813629 
	C172.313141,356.962128 178.161621,357.278961 184.466217,356.464172 
	C182.565369,352.503418 179.388382,350.936310 176.243027,348.365906 
M93.257240,319.824524 
	C94.440971,322.255554 94.417297,322.217224 96.555710,320.896301 
	C98.926743,319.431732 100.646957,316.793854 104.194801,316.131012 
	C102.841080,320.374603 98.194580,320.766541 97.130539,324.552856 
	C97.657501,324.905151 98.173485,325.544312 98.712891,325.564728 
	C103.545998,325.747711 105.806007,321.637421 108.719017,318.979401 
	C111.346359,316.582031 107.755821,315.612488 106.534340,314.175171 
	C106.340950,313.947632 106.303795,313.565552 106.248520,313.245575 
	C105.423561,308.469879 103.386589,310.452698 101.325188,312.341797 
	C98.760574,314.692047 96.168793,317.012695 93.257240,319.824524 
M134.505463,347.074738 
	C132.273438,345.072021 130.478790,344.990356 130.440460,348.499725 
	C130.411301,351.171509 129.019394,354.730560 131.983444,356.269592 
	C134.796799,357.730408 138.267960,357.690521 141.414703,355.861023 
	C140.417587,351.982666 137.123962,350.216003 134.505463,347.074738 
M348.986237,116.370911 
	C353.473633,118.471184 356.072937,115.771416 359.210449,113.027138 
	C357.015747,111.765160 355.842407,113.847008 354.173065,112.997269 
	C354.855133,111.509750 357.096100,111.209969 357.084564,109.293327 
	C352.782745,107.938995 345.888519,111.564903 343.990143,116.183113 
	C345.404022,117.182793 346.866455,116.382118 348.986237,116.370911 
M370.959412,379.958069 
	C375.548096,384.021057 377.411560,383.474579 381.969116,376.311920 
	C378.354584,377.758087 378.838959,373.569672 376.550934,372.910095 
	C374.131348,374.707062 371.481415,376.131439 370.959412,379.958069 
M407.512238,396.872345 
	C406.411072,391.474030 404.768890,386.308807 401.397247,381.014984 
	C400.078583,385.583466 402.716736,396.142090 405.164886,398.002258 
	C405.967499,398.612091 406.715332,398.223969 407.512238,396.872345 
M170.879135,367.357117 
	C172.865204,365.513702 175.998398,365.196869 177.736801,362.388733 
	C174.177353,360.334503 171.210632,361.546356 168.198990,362.954346 
	C166.367859,363.810455 164.868530,365.075439 165.670868,367.086548 
	C166.598679,369.412109 168.557129,368.651886 170.879135,367.357117 
M361.489441,287.372223 
	C355.971893,289.127991 352.760559,293.375946 349.767853,297.875397 
	C354.048462,294.931519 359.062561,292.860840 361.489441,287.372223 
M120.812080,333.866180 
	C118.782936,329.657471 111.090828,328.765350 106.598457,333.736084 
	C112.221870,331.653900 116.046112,334.567230 120.812080,333.866180 
M265.567810,225.796967 
	C267.296783,225.068451 269.540131,224.876389 269.406921,221.338135 
	C266.393768,223.383987 263.213013,217.630264 260.186005,222.713821 
	C261.746399,223.819717 261.402069,227.399292 265.567810,225.796967 
M108.474480,326.969391 
	C109.277054,326.778900 110.152565,326.732056 110.867462,326.368958 
	C112.494804,325.542419 114.529854,324.590179 113.059868,322.321014 
	C111.867165,320.479950 110.057449,321.271545 108.726570,322.376556 
	C107.263985,323.590912 105.277702,324.291351 104.456329,326.217529 
	C105.433662,327.387939 106.662605,326.895935 108.474480,326.969391 
M100.420334,307.309296 
	C97.437202,309.968475 93.449104,311.746765 92.338135,316.110260 
	C95.690788,314.411713 98.661850,312.346100 101.392982,310.001099 
	C102.237549,309.275940 104.574799,307.436646 100.420334,307.309296 
M345.542450,111.126602 
	C346.791351,110.157402 348.516144,109.600296 348.675903,107.621910 
	C343.191315,106.943130 340.152740,108.760925 339.950684,112.832466 
	C341.991150,113.753212 343.333618,112.076042 345.542450,111.126602 
M355.902924,273.103088 
	C352.277191,276.107849 348.651428,279.112610 345.025665,282.117371 
	C345.437500,282.580048 345.849335,283.042725 346.261169,283.505402 
	C349.951294,280.381165 353.678894,277.299042 357.290680,274.086761 
	C357.825439,273.611176 357.322693,272.876007 355.902924,273.103088 
M382.194214,154.464722 
	C384.277283,152.971329 386.801910,151.816711 386.936737,148.615326 
	C382.746674,148.792969 379.677795,151.656113 378.940521,155.847733 
	C380.061401,156.083893 380.800812,155.309708 382.194214,154.464722 
M95.382446,335.301270 
	C88.792427,334.316223 88.792427,334.316223 89.170639,341.458984 
	C91.541283,339.285217 94.617798,338.709076 95.382446,335.301270 
M275.070587,214.601303 
	C273.563416,215.250687 272.019623,215.828384 270.561615,216.573929 
	C269.542175,217.095276 269.248810,218.032623 269.857513,219.085831 
	C270.397919,220.020889 271.460236,220.869492 272.276672,220.299377 
	C274.112213,219.017685 277.009460,218.135162 275.070587,214.601303 
M219.506485,245.935577 
	C217.612808,246.907394 217.083649,244.192032 215.317856,244.272247 
	C214.780563,245.592682 212.765442,246.709381 214.425705,248.109909 
	C216.743927,250.065491 219.255127,248.287811 222.559219,248.046616 
	C221.185089,247.059860 220.558334,246.609772 219.506485,245.935577 
M94.010536,329.621704 
	C94.803848,329.031281 95.803299,328.467712 95.045868,327.272522 
	C94.562325,326.509491 93.661873,326.222412 92.860031,326.618896 
	C91.095581,327.491302 89.367081,328.484375 89.750946,331.063812 
	C91.392754,331.604462 92.354042,330.542084 94.010536,329.621704 
M353.385162,289.274689 
	C355.540924,287.451324 358.001587,285.896790 359.908966,282.157593 
	C355.500793,284.382874 352.979553,286.700500 350.527710,290.783356 
	C352.060608,290.030396 352.493408,289.817780 353.385162,289.274689 
M255.815536,227.391556 
	C254.360580,226.792725 252.975296,225.622604 251.216217,226.798431 
	C251.575485,228.897568 252.761368,230.241287 254.795013,230.328415 
	C256.307220,230.393219 256.641510,229.208511 255.815536,227.391556 
M381.744507,132.883972 
	C377.947632,132.555908 377.357849,135.583115 376.012848,137.825012 
	C378.660553,137.183792 380.173340,135.263504 381.744507,132.883972 
z"/>
<path fill="#000000" opacity="1.000000" stroke="none" 
	d="
M478.757568,374.159790 
	C474.023956,374.169830 469.758423,374.169830 465.492889,374.169830 
	C465.466705,373.533051 465.440552,372.896301 465.414368,372.259521 
	C473.245239,371.297272 481.225677,372.119781 489.113953,371.220734 
	C486.260406,374.102875 482.524445,373.312592 478.757568,374.159790 
z"/>
<path fill="#000000" opacity="1.000000" stroke="none" 
	d="
M441.242035,385.733154 
	C448.899200,383.211029 457.031494,383.312347 465.113373,382.886505 
	C457.533325,386.362183 449.512573,386.311432 441.242035,385.733154 
z"/>
<path fill="#000000" opacity="1.000000" stroke="none" 
	d="
M464.022400,369.979218 
	C460.641083,368.254639 463.291534,367.993011 464.283112,368.013611 
	C470.082458,368.133972 475.788696,366.325623 481.670990,367.541107 
	C476.093170,369.538269 470.348022,370.473236 464.022400,369.979218 
z"/>
<path fill="#000000" opacity="1.000000" stroke="none" 
	d="
M57.343475,372.805542 
	C67.966957,372.770660 78.241814,372.770660 88.516678,372.770660 
	C88.547424,373.259308 88.578171,373.747925 88.608917,374.236572 
	C86.362785,374.236572 84.116638,374.243347 81.870537,374.235352 
	C73.572289,374.205811 65.274040,374.175781 56.975967,374.119568 
	C56.697769,374.117706 56.421494,373.832520 56.144325,373.679382 
	C56.427837,373.399689 56.711346,373.120026 57.343475,372.805542 
z"/>
<path fill="#000000" opacity="1.000000" stroke="none" 
	d="
M80.052727,380.432678 
	C77.117981,383.196350 73.842278,382.139404 69.225014,381.111206 
	C73.525871,379.079651 76.698341,379.926270 80.052727,380.432678 
z"/>
<path fill="#000000" opacity="1.000000" stroke="none" 
	d="
M71.110992,384.029297 
	C72.150124,384.429688 73.451935,385.077576 72.584961,385.655457 
	C70.129097,387.292358 67.393517,387.895630 64.461021,385.828796 
	C66.477470,383.566925 68.703079,384.089630 71.110992,384.029297 
z"/>
<path fill="#000000" opacity="1.000000" stroke="none" 
	d="
M333.161713,380.872772 
	C334.329926,380.966583 335.117279,381.053436 335.904602,381.140320 
	C330.730011,382.740021 325.557831,381.830780 320.373016,380.865845 
	C324.508972,380.865845 328.644897,380.865845 333.161713,380.872772 
z"/>
<path fill="#000000" opacity="1.000000" stroke="none" 
	d="
M492.070984,339.086182 
	C487.070160,344.434937 480.521027,347.544189 474.773621,351.827698 
	C474.447571,351.368347 474.121552,350.908997 473.795502,350.449646 
	C479.581360,346.621918 485.367188,342.794189 491.486206,338.884155 
	C491.819366,338.801849 491.987000,338.991486 492.070984,339.086182 
z"/>
<path fill="#000000" opacity="1.000000" stroke="none" 
	d="
M247.910507,366.872925 
	C243.729599,367.116180 239.946243,367.000275 235.050064,365.338989 
	C240.869797,365.338989 245.457672,365.338989 250.081421,365.338989 
	C249.971359,366.665924 249.010269,366.596558 247.910507,366.872925 
z"/>
</svg>